<svg width="39" height="40" viewBox="0 0 39 40" fill="none" xmlns="http://www.w3.org/2000/svg">
<path d="M19.375 0.625C8.67187 0.625 0 9.375 0 20C0 30.7031 8.67187 39.375 19.375 39.375C30 39.375 38.75 30.7031 38.75 20C38.75 9.375 30 0.625 19.375 0.625ZM19.375 34.375C11.4062 34.375 5 27.9687 5 20C5 12.1094 11.4062 5.625 19.375 5.625C27.2656 5.625 33.75 12.1094 33.75 20C33.75 27.9687 27.2656 34.375 19.375 34.375ZM19.375 10C13.8281 10 9.375 14.5312 9.375 20C9.375 25.5469 13.8281 30 19.375 30C24.8437 30 29.375 25.5469 29.375 20C29.375 14.5312 24.8437 10 19.375 10ZM19.375 25C16.5625 25 14.375 22.8125 14.375 20C14.375 17.2656 16.5625 15 19.375 15C22.1094 15 24.375 17.2656 24.375 20C24.375 22.8125 22.1094 25 19.375 25Z" fill="green"/>
</svg>
